<?xml version="1.0" encoding="UTF-8"?>
<svg version="1.1" xmlns="http://www.w3.org/2000/svg" width="459" height="504">
<path d="M0 0 C151.47 0 302.94 0 459 0 C459 166.32 459 332.64 459 504 C307.53 504 156.06 504 0 504 C0 337.68 0 171.36 0 0 Z " fill="#FEFEFE" transform="translate(0,0)"/>
<path d="M0 0 C-0.33 2.31 -0.66 4.62 -1 7 C-1.87140625 7.09796875 -2.7428125 7.1959375 -3.640625 7.296875 C-23.91392495 9.84200789 -40.80132097 17.94126776 -54.1875 33.6484375 C-66.31701915 49.38544294 -70.764517 67.36142514 -69 87 C-67.02693798 101.07122065 -60.55016698 113.50522639 -51.390625 124.17578125 C-33.41348641 145.41347929 -23 170.99912255 -23 199 C-11.78 199 -0.56 199 11 199 C11 206.92 11 214.84 11 223 C0.44 223 -10.12 223 -21 223 C-21 225.31 -21 227.62 -21 230 C-4.83 230 11.34 230 28 230 C28 237.92 28 245.84 28 254 C24.0709375 254.0309375 24.0709375 254.0309375 20.0625 254.0625 C19.2362915 254.071604 18.41008301 254.08070801 17.55883789 254.09008789 C15.70566241 254.09723945 13.85250692 254.0502852 12 254 C11 253 11 253 10.875 250 C11 247 11 247 12 246 C14.67058851 245.85884839 17.32432238 245.95752893 20 246 C20 243.36 20 240.72 20 238 C3.83 238 -12.34 238 -29 238 C-29 230.41 -29 222.82 -29 215 C-18.44 215 -7.88 215 3 215 C3 212.36 3 209.72 3 207 C-8.22 207 -19.44 207 -31 207 C-31.103125 204.36 -31.20625 201.72 -31.3125 199 C-32.58129522 173.82177017 -40.70942565 150.15697507 -57.4375 131 C-60 128 -60 128 -60 126 C-61.485 125.505 -61.485 125.505 -63 125 C-63 124.01 -63 123.02 -63 122 C-63.66 122 -64.32 122 -65 122 C-76.51924626 100.21967757 -81.85083404 79.01088984 -75.03515625 54.53515625 C-70.73951543 41.44574567 -63.68735443 30.71986233 -54 21 C-53.25234375 20.22914062 -52.5046875 19.45828125 -51.734375 18.6640625 C-39.68896759 6.97762419 -17.16820469 -5.15046141 0 0 Z " fill="#275CA3" transform="translate(234,93)"/>
<path d="M0 0 C4.86099442 2.18471659 7.46404794 4.70478253 9.5 9.625 C10 13 10 13 10 17 C7.24921116 17.91692961 5.64051087 18.10886083 2.8125 18.0625 C0.9253125 18.0315625 0.9253125 18.0315625 -1 18 C-1.99 15.69 -2.98 13.38 -4 11 C-5.66611905 10.957279 -7.33382885 10.95936168 -9 11 C-10.55090815 12.55090815 -10.20677311 14.03696233 -10.25 16.1875 C-10.27578125 16.94417969 -10.3015625 17.70085937 -10.328125 18.48046875 C-9.57080626 24.29559477 -6.61710142 27.6845451 -2.1875 31.25 C4.13193236 36.70097236 9.44104055 43.52219742 10.3125 52.0625 C9.8023722 58.49011029 7.96351945 64.73836855 2.9375 69.0625 C-1.59411966 72.05144062 -5.66453978 72.65954951 -11 72 C-17.16898008 69.66004204 -19.72729481 66.19157482 -22.91015625 60.484375 C-24.21261588 57.51532725 -24.50622498 55.20609156 -24 52 C-20.7 52 -17.4 52 -14 52 C-13.46375 53.134375 -12.9275 54.26875 -12.375 55.4375 C-10.68331199 58.40547932 -10.30495008 58.88797752 -6.9375 60.125 C-4.06747235 60.22631847 -4.06747235 60.22631847 -2.125 58.9375 C-0.38519899 55.94117603 -0.42447688 54.45313871 -1 51 C-3.62493973 45.72029169 -7.26867299 41.61483687 -11.5 37.5625 C-17.58352481 31.71532835 -22.60868068 24.77409568 -23.3125 16.1875 C-23.23980116 11.77710357 -21.87353778 9.40287368 -19 6 C-12.93273271 0.27324261 -8.31269652 -1.16355375 0 0 Z " fill="#1D3877" transform="translate(263,375)"/>
<path d="M0 0 C4.86099442 2.18471659 7.46404794 4.70478253 9.5 9.625 C10 13 10 13 10 17 C7.24921116 17.91692961 5.64051087 18.10886083 2.8125 18.0625 C0.9253125 18.0315625 0.9253125 18.0315625 -1 18 C-1.99 15.69 -2.98 13.38 -4 11 C-5.66611905 10.957279 -7.33382885 10.95936168 -9 11 C-10.55090815 12.55090815 -10.20677311 14.03696233 -10.25 16.1875 C-10.27578125 16.94417969 -10.3015625 17.70085937 -10.328125 18.48046875 C-9.57080626 24.29559477 -6.61710142 27.6845451 -2.1875 31.25 C4.13193236 36.70097236 9.44104055 43.52219742 10.3125 52.0625 C9.8023722 58.49011029 7.96351945 64.73836855 2.9375 69.0625 C-1.59411966 72.05144062 -5.66453978 72.65954951 -11 72 C-17.16898008 69.66004204 -19.72729481 66.19157482 -22.91015625 60.484375 C-24.21261588 57.51532725 -24.50622498 55.20609156 -24 52 C-20.7 52 -17.4 52 -14 52 C-13.46375 53.134375 -12.9275 54.26875 -12.375 55.4375 C-10.68331199 58.40547932 -10.30495008 58.88797752 -6.9375 60.125 C-4.06747235 60.22631847 -4.06747235 60.22631847 -2.125 58.9375 C-0.38519899 55.94117603 -0.42447688 54.45313871 -1 51 C-3.62493973 45.72029169 -7.26867299 41.61483687 -11.5 37.5625 C-17.58352481 31.71532835 -22.60868068 24.77409568 -23.3125 16.1875 C-23.23980116 11.77710357 -21.87353778 9.40287368 -19 6 C-12.93273271 0.27324261 -8.31269652 -1.16355375 0 0 Z " fill="#1D3877" transform="translate(219,375)"/>
<path d="M0 0 C0 2.64 0 5.28 0 8 C-1.02738281 8.20753906 -2.05476563 8.41507813 -3.11328125 8.62890625 C-15.61777431 11.33405248 -26.71107426 15.82872217 -34 27 C-37.65053681 34.03823497 -39.83988582 41.17355805 -41 49 C-43.31 49 -45.62 49 -48 49 C-48.76066437 35.75880549 -44.63311416 25.80054226 -36.046875 15.703125 C-26.3868291 5.58669898 -14.06238455 -0.27573303 0 0 Z " fill="#275CA3" transform="translate(232,121)"/>
<path d="M0 0 C2.625 0.375 2.625 0.375 5 1 C5.625 3.3125 5.625 3.3125 6 6 C5.01 7.485 5.01 7.485 4 9 C2.35 8.67 0.7 8.34 -1 8 C-1.625 5.125 -1.625 5.125 -2 2 C-1.34 1.34 -0.68 0.68 0 0 Z " fill="#3D6DAC" transform="translate(306,163)"/>
<path d="M0 0 C2.625 0.375 2.625 0.375 5 1 C5.625 3.375 5.625 3.375 6 6 C5.34 6.66 4.68 7.32 4 8 C1.375 7.625 1.375 7.625 -1 7 C-1.625 4.625 -1.625 4.625 -2 2 C-1.34 1.34 -0.68 0.68 0 0 Z " fill="#3C6CAC" transform="translate(261,269)"/>
<path d="M0 0 C2.625 0.375 2.625 0.375 5 1 C5.625 3.375 5.625 3.375 6 6 C5.34 6.66 4.68 7.32 4 8 C1.375 7.625 1.375 7.625 -1 7 C-1.625 4.625 -1.625 4.625 -2 2 C-1.34 1.34 -0.68 0.68 0 0 Z " fill="#3A6AAB" transform="translate(279,226)"/>
<path d="M0 0 C0.78375 0.04125 1.5675 0.0825 2.375 0.125 C2.705 2.105 3.035 4.085 3.375 6.125 C0.375 8.125 0.375 8.125 -1.8125 7.75 C-2.410625 7.54375 -3.00875 7.3375 -3.625 7.125 C-4.25 4.75 -4.25 4.75 -4.625 2.125 C-2.625 0.125 -2.625 0.125 0 0 Z " fill="#3B6BAB" transform="translate(254.625,94.875)"/>
<path d="M0 0 C1.67542976 0.28604898 3.34385343 0.61781233 5 1 C5.625 3.375 5.625 3.375 6 6 C5.34 6.66 4.68 7.32 4 8 C1.73725212 7.64644564 0.04911148 7.02455574 -2 6 C-1.125 1.125 -1.125 1.125 0 0 Z " fill="#3D6CAC" transform="translate(303,187)"/>
<path d="M0 0 C2.625 0.375 2.625 0.375 5 1 C5.625 2.8125 5.625 2.8125 6 5 C5.01 6.485 5.01 6.485 4 8 C2.35 7.67 0.7 7.34 -1 7 C-1.625 4.625 -1.625 4.625 -2 2 C-1.34 1.34 -0.68 0.68 0 0 Z " fill="#3668AA" transform="translate(273,105)"/>
<path d="M0 0 C2.5 0.125 2.5 0.125 3.5 1.125 C3.21269945 3.46444736 2.88063221 5.7989143 2.5 8.125 C-2.375 7.25 -2.375 7.25 -3.5 6.125 C-3.625 3.625 -3.625 3.625 -3.5 1.125 C-2.5 0.125 -2.5 0.125 0 0 Z " fill="#2D61A6" transform="translate(260.5,291.875)"/>
<path d="M0 0 C1.67542976 0.28604898 3.34385343 0.61781233 5 1 C5.625 3.375 5.625 3.375 6 6 C5.34 6.66 4.68 7.32 4 8 C1.375 7.625 1.375 7.625 -1 7 C-1.04254356 5.00045254 -1.04080783 2.99958364 -1 1 C-0.67 0.67 -0.34 0.34 0 0 Z " fill="#3264A8" transform="translate(293,208)"/>
<path d="M0 0 C2.5 0.125 2.5 0.125 3.5 1.125 C3.625 3.625 3.625 3.625 3.5 6.125 C2.5 7.125 2.5 7.125 0 7.25 C-2.5 7.125 -2.5 7.125 -3.5 6.125 C-3.625 3.625 -3.625 3.625 -3.5 1.125 C-2.5 0.125 -2.5 0.125 0 0 Z " fill="#2C60A5" transform="translate(269.5,246.875)"/>
<path d="M0 0 C2.5 0.125 2.5 0.125 3.5 1.125 C3.625 3.625 3.625 3.625 3.5 6.125 C2.5 7.125 2.5 7.125 0 7.25 C-2.5 7.125 -2.5 7.125 -3.5 6.125 C-3.625 3.625 -3.625 3.625 -3.5 1.125 C-2.5 0.125 -2.5 0.125 0 0 Z " fill="#2C60A5" transform="translate(303.5,140.875)"/>
<path d="M0 0 C1.2065625 0.0309375 1.2065625 0.0309375 2.4375 0.0625 C3.5625 4.8125 3.5625 4.8125 2.4375 7.0625 C0.77138095 7.105221 -0.89632885 7.10313832 -2.5625 7.0625 C-3.5625 6.0625 -3.5625 6.0625 -3.6875 3.5625 C-3.51717518 0.15600356 -3.41884482 0.08338646 0 0 Z " fill="#2C60A5" transform="translate(292.5625,120.9375)"/>
</svg>
